<svg width="351" height="120" viewBox="0 0 351 120" fill="none" xmlns="http://www.w3.org/2000/svg">
<g clip-path="url(#clip0_28_98)">
<path d="M4.8 96V87.552L31.2 52.8V55.296H4.8V45.408H43.488V53.856L17.856 87.936L17.472 86.112H44.16V96H4.8ZM66.6083 80.544L64.3043 69.504L88.3043 45.408H104.048L66.6083 80.544ZM55.5683 96V24.96H67.3763V96H55.5683ZM89.7443 96L71.1203 73.44L79.4723 66.336L104.336 96H89.7443Z" fill="black"/>
<path d="M133.7 96L106.82 28.8H120.452L135.428 67.296C136.196 69.28 136.868 71.072 137.444 72.672C138.02 74.208 138.532 75.616 138.98 76.896C139.428 78.176 139.812 79.424 140.132 80.64C140.516 81.856 140.932 83.136 141.38 84.48H138.692C139.14 82.752 139.62 81.056 140.132 79.392C140.644 77.664 141.22 75.84 141.86 73.92C142.564 72 143.396 69.792 144.356 67.296L158.372 28.8H172.1L145.028 96H133.7ZM194.016 96.96C189.856 96.96 186.08 95.808 182.688 93.504C179.296 91.2 176.576 88.064 174.528 84.096C172.48 80.128 171.456 75.616 171.456 70.56C171.456 65.504 172.48 60.992 174.528 57.024C176.576 53.056 179.36 49.952 182.88 47.712C186.4 45.472 190.368 44.352 194.784 44.352C197.344 44.352 199.68 44.736 201.792 45.504C203.904 46.208 205.76 47.232 207.36 48.576C208.96 49.92 210.272 51.456 211.296 53.184C212.384 54.912 213.12 56.768 213.504 58.752L210.912 58.08V45.408H222.816V96H210.816V83.904L213.6 83.424C213.152 85.152 212.32 86.848 211.104 88.512C209.952 90.112 208.48 91.552 206.688 92.832C204.96 94.048 203.008 95.04 200.832 95.808C198.72 96.576 196.448 96.96 194.016 96.96ZM197.28 86.496C200.032 86.496 202.464 85.824 204.576 84.48C206.688 83.136 208.32 81.28 209.472 78.912C210.688 76.48 211.296 73.696 211.296 70.56C211.296 67.488 210.688 64.768 209.472 62.4C208.32 60.032 206.688 58.176 204.576 56.832C202.464 55.488 200.032 54.816 197.28 54.816C194.528 54.816 192.096 55.488 189.984 56.832C187.936 58.176 186.336 60.032 185.184 62.4C184.032 64.768 183.456 67.488 183.456 70.56C183.456 73.696 184.032 76.48 185.184 78.912C186.336 81.28 187.936 83.136 189.984 84.48C192.096 85.824 194.528 86.496 197.28 86.496ZM253.136 96.96C249.488 96.96 246.32 96.16 243.632 94.56C240.944 92.896 238.896 90.56 237.488 87.552C236.08 84.48 235.376 80.832 235.376 76.608V45.408H247.184V74.112C247.184 76.8 247.6 79.104 248.432 81.024C249.264 82.88 250.48 84.32 252.08 85.344C253.68 86.368 255.6 86.88 257.84 86.88C259.504 86.88 261.008 86.624 262.352 86.112C263.76 85.536 264.976 84.768 266 83.808C267.024 82.784 267.824 81.6 268.4 80.256C268.976 78.848 269.264 77.344 269.264 75.744V45.408H281.072V96H269.552L269.36 85.44L271.472 84.288C270.704 86.72 269.392 88.896 267.536 90.816C265.744 92.672 263.6 94.176 261.104 95.328C258.608 96.416 255.952 96.96 253.136 96.96ZM295.008 96V24.96H306.912V96H295.008ZM325.978 96V32.544H337.786V96H325.978ZM315.994 56.352V45.408H348.826V56.352H315.994Z" fill="#7BB500"/>
</g>
<defs>
<clipPath id="clip0_28_98">
<rect width="351" height="120" fill="white"/>
</clipPath>
</defs>
</svg>
