<svg width="517" height="517" viewBox="0 0 517 517" fill="none" xmlns="http://www.w3.org/2000/svg">
<rect x="514.326" y="79.269" width="437.873" height="437.873" transform="rotate(92.3904 514.326 79.269)" fill="#464646"/>
<rect x="457.909" y="18.9803" width="436.873" height="436.873" transform="rotate(92.3904 457.909 18.9803)" fill="url(#paint0_linear_138_149)" stroke="white"/>
<mask id="path-3-inside-1_138_149" fill="white">
<path fill-rule="evenodd" clip-rule="evenodd" d="M496.063 516.761L437.731 514.326L440.166 455.994L496.063 516.761ZM440.166 455.993L437.731 514.326L58.571 498.498L2.67379 437.73L61.0061 440.166L61.0061 440.165L440.166 455.993Z"/>
</mask>
<path fill-rule="evenodd" clip-rule="evenodd" d="M496.063 516.761L437.731 514.326L440.166 455.994L496.063 516.761ZM440.166 455.993L437.731 514.326L58.571 498.498L2.67379 437.73L61.0061 440.166L61.0061 440.165L440.166 455.993Z" fill="black"/>
<path d="M437.731 514.326L436.732 514.284L436.69 515.283L437.689 515.325L437.731 514.326ZM496.063 516.761L496.021 517.76L498.434 517.861L496.799 516.084L496.063 516.761ZM440.166 455.994L440.902 455.317L439.268 453.54L439.167 455.952L440.166 455.994ZM437.731 514.326L437.689 515.325L438.688 515.367L438.73 514.367L437.731 514.326ZM440.166 455.993L441.165 456.035L441.207 455.036L440.208 454.994L440.166 455.993ZM58.571 498.498L57.835 499.175L58.1154 499.48L58.5293 499.497L58.571 498.498ZM2.67379 437.73L2.7155 436.731L0.303387 436.631L1.93782 438.407L2.67379 437.73ZM61.0061 440.166L60.9644 441.165L62.1545 441.214L61.9973 440.034L61.0061 440.166ZM61.0061 440.165L61.0478 439.166L59.8576 439.117L60.0148 440.297L61.0061 440.165ZM437.689 515.325L496.021 517.76L496.105 515.762L437.773 513.327L437.689 515.325ZM439.167 455.952L436.732 514.284L438.73 514.368L441.165 456.035L439.167 455.952ZM496.799 516.084L440.902 455.317L439.43 456.671L495.327 517.438L496.799 516.084ZM438.73 514.367L441.165 456.035L439.167 455.952L436.732 514.284L438.73 514.367ZM58.5293 499.497L437.689 515.325L437.773 513.327L58.6127 497.499L58.5293 499.497ZM59.3069 497.821L3.40976 437.053L1.93782 438.407L57.835 499.175L59.3069 497.821ZM2.63208 438.73L60.9644 441.165L61.0478 439.166L2.7155 436.731L2.63208 438.73ZM60.0148 440.297L60.0148 440.298L61.9973 440.034L61.9973 440.033L60.0148 440.297ZM440.208 454.994L61.0478 439.166L60.9643 441.165L440.124 456.993L440.208 454.994Z" fill="white" mask="url(#path-3-inside-1_138_149)"/>
<mask id="path-5-inside-2_138_149" fill="white">
<path fill-rule="evenodd" clip-rule="evenodd" d="M455.994 76.8336L514.326 79.2687L458.429 18.5013L455.994 76.8336ZM455.994 76.8337L514.326 79.2687L498.498 458.429L498.498 458.429L496.063 516.761L440.166 455.994L455.994 76.8337Z"/>
</mask>
<path fill-rule="evenodd" clip-rule="evenodd" d="M455.994 76.8336L514.326 79.2687L458.429 18.5013L455.994 76.8336ZM455.994 76.8337L514.326 79.2687L498.498 458.429L498.498 458.429L496.063 516.761L440.166 455.994L455.994 76.8337Z" fill="black"/>
<path d="M514.326 79.2687L514.285 80.2678L516.697 80.3685L515.062 78.5917L514.326 79.2687ZM455.994 76.8336L454.995 76.7919L454.953 77.791L455.952 77.8327L455.994 76.8336ZM458.429 18.5013L459.165 17.8243L457.531 16.0475L457.43 18.4596L458.429 18.5013ZM514.326 79.2687L515.325 79.3104L515.367 78.3113L514.368 78.2696L514.326 79.2687ZM455.994 76.8337L456.036 75.8345L455.037 75.7928L454.995 76.7919L455.994 76.8337ZM498.498 458.429L497.504 458.532L499.497 458.47L498.498 458.429ZM498.498 458.429L499.493 458.326L497.499 458.387L498.498 458.429ZM496.063 516.761L495.327 517.438L496.962 519.215L497.062 516.803L496.063 516.761ZM440.166 455.994L439.167 455.952L439.15 456.366L439.43 456.671L440.166 455.994ZM514.368 78.2696L456.036 75.8345L455.952 77.8327L514.285 80.2678L514.368 78.2696ZM457.693 19.1783L513.59 79.9457L515.062 78.5917L459.165 17.8243L457.693 19.1783ZM456.993 76.8753L459.428 18.543L457.43 18.4596L454.995 76.7919L456.993 76.8753ZM514.368 78.2696L456.036 75.8345L455.952 77.8328L514.285 80.2679L514.368 78.2696ZM499.497 458.47L515.325 79.3104L513.327 79.227L497.499 458.387L499.497 458.47ZM497.504 458.531L497.504 458.532L499.493 458.326L499.493 458.326L497.504 458.531ZM497.062 516.803L499.497 458.47L497.499 458.387L495.064 516.719L497.062 516.803ZM439.43 456.671L495.327 517.438L496.799 516.084L440.902 455.317L439.43 456.671ZM454.995 76.7919L439.167 455.952L441.165 456.035L456.993 76.8754L454.995 76.7919Z" fill="white" mask="url(#path-5-inside-2_138_149)"/>
<rect x="405.514" y="103.974" width="300" height="300" transform="rotate(92.3904 405.514 103.974)" fill="#464646"/>
<rect x="366.697" y="62.8188" width="299" height="299" transform="rotate(92.3904 366.697 62.8188)" fill="url(#paint1_linear_138_149)" stroke="white"/>
<mask id="path-9-inside-3_138_149" fill="white">
<path fill-rule="evenodd" clip-rule="evenodd" d="M393.002 403.713L353.036 402.044L93.2626 391.2L54.9658 349.566L94.931 351.235L354.705 362.079L393.002 403.713Z"/>
</mask>
<path fill-rule="evenodd" clip-rule="evenodd" d="M393.002 403.713L353.036 402.044L93.2626 391.2L54.9658 349.566L94.931 351.235L354.705 362.079L393.002 403.713Z" fill="black"/>
<path d="M353.036 402.044L352.995 403.043L353.036 402.044ZM393.002 403.713L392.96 404.712L395.372 404.812L393.738 403.036L393.002 403.713ZM93.2626 391.2L92.5267 391.877L92.8071 392.182L93.2209 392.199L93.2626 391.2ZM54.9658 349.566L55.0075 348.567L52.5954 348.467L54.2298 350.243L54.9658 349.566ZM94.931 351.235L94.9727 350.236L94.931 351.235ZM354.705 362.079L355.441 361.402L355.16 361.097L354.746 361.08L354.705 362.079ZM352.995 403.043L392.96 404.712L393.043 402.713L353.078 401.045L352.995 403.043ZM93.2209 392.199L352.995 403.043L353.078 401.045L93.3043 390.201L93.2209 392.199ZM93.9986 390.523L55.7017 348.889L54.2298 350.243L92.5267 391.877L93.9986 390.523ZM54.9241 350.566L94.8893 352.234L94.9727 350.236L55.0075 348.567L54.9241 350.566ZM354.746 361.08L94.9727 350.236L94.8893 352.234L354.663 363.078L354.746 361.08ZM393.738 403.036L355.441 361.402L353.969 362.756L392.266 404.39L393.738 403.036Z" fill="white" mask="url(#path-9-inside-3_138_149)"/>
<mask id="path-11-inside-4_138_149" fill="white">
<path fill-rule="evenodd" clip-rule="evenodd" d="M367.217 62.3401L365.549 102.305L354.705 362.079L393.002 403.713L394.67 363.747L405.514 103.974L367.217 62.3401Z"/>
</mask>
<path fill-rule="evenodd" clip-rule="evenodd" d="M367.217 62.3401L365.549 102.305L354.705 362.079L393.002 403.713L394.67 363.747L405.514 103.974L367.217 62.3401Z" fill="black"/>
<path d="M367.217 62.3401L367.953 61.6631L366.319 59.8863L366.218 62.2984L367.217 62.3401ZM354.705 362.079L353.706 362.037L353.688 362.451L353.969 362.756L354.705 362.079ZM393.002 403.713L392.266 404.39L393.9 406.166L394.001 403.754L393.002 403.713ZM405.514 103.974L406.513 104.015L406.531 103.601L406.25 103.297L405.514 103.974ZM366.548 102.347L368.217 62.3818L366.218 62.2984L364.55 102.264L366.548 102.347ZM364.55 102.264L353.706 362.037L355.704 362.121L366.548 102.347L364.55 102.264ZM353.969 362.756L392.266 404.39L393.738 403.036L355.441 361.402L353.969 362.756ZM394.001 403.754L395.669 363.789L393.671 363.706L392.003 403.671L394.001 403.754ZM395.669 363.789L406.513 104.015L404.515 103.932L393.671 363.706L395.669 363.789ZM366.481 63.0171L404.778 104.651L406.25 103.297L367.953 61.6631L366.481 63.0171Z" fill="white" mask="url(#path-11-inside-4_138_149)"/>
<rect x="313.446" y="136.846" width="168.142" height="168.142" transform="rotate(92.3904 313.446 136.846)" fill="#464646"/>
<rect x="291.462" y="113.99" width="167.142" height="167.142" transform="rotate(92.3904 291.462 113.99)" fill="url(#paint2_linear_138_149)" stroke="white"/>
<mask id="path-15-inside-5_138_149" fill="white">
<path fill-rule="evenodd" clip-rule="evenodd" d="M306.433 304.841L284.034 303.906L284.969 281.507L306.433 304.841ZM284.034 303.906L138.438 297.828L139.373 275.429L284.969 281.507L284.034 303.906ZM139.373 275.429L116.974 274.494L138.438 297.828L139.373 275.429Z"/>
</mask>
<path fill-rule="evenodd" clip-rule="evenodd" d="M306.433 304.841L284.034 303.906L284.969 281.507L306.433 304.841ZM284.034 303.906L138.438 297.828L139.373 275.429L284.969 281.507L284.034 303.906ZM139.373 275.429L116.974 274.494L138.438 297.828L139.373 275.429Z" fill="black"/>
<path d="M284.034 303.906L283.035 303.865L282.993 304.864L283.992 304.905L284.034 303.906ZM306.433 304.841L306.392 305.841L308.804 305.941L307.169 304.164L306.433 304.841ZM284.969 281.507L285.705 280.83L284.071 279.053L283.97 281.465L284.969 281.507ZM138.438 297.828L137.439 297.787L137.397 298.786L138.396 298.827L138.438 297.828ZM284.034 303.906L283.992 304.905L284.991 304.947L285.033 303.948L284.034 303.906ZM139.373 275.429L139.415 274.43L138.416 274.388L138.374 275.387L139.373 275.429ZM284.969 281.507L285.968 281.549L286.01 280.549L285.011 280.508L284.969 281.507ZM116.974 274.494L117.015 273.495L114.603 273.394L116.238 275.171L116.974 274.494ZM139.373 275.429L140.372 275.471L140.414 274.472L139.415 274.43L139.373 275.429ZM138.438 297.828L137.702 298.505L139.336 300.282L139.437 297.87L138.438 297.828ZM283.992 304.905L306.392 305.841L306.475 303.842L284.076 302.907L283.992 304.905ZM283.97 281.465L283.035 303.865L285.033 303.948L285.968 281.549L283.97 281.465ZM307.169 304.164L285.705 280.83L284.233 282.184L305.697 305.518L307.169 304.164ZM138.396 298.827L283.992 304.905L284.076 302.907L138.48 296.829L138.396 298.827ZM138.374 275.387L137.439 297.787L139.437 297.87L140.372 275.471L138.374 275.387ZM285.011 280.508L139.415 274.43L139.331 276.428L284.927 282.506L285.011 280.508ZM285.033 303.948L285.968 281.549L283.97 281.465L283.035 303.865L285.033 303.948ZM116.932 275.493L139.331 276.428L139.415 274.43L117.015 273.495L116.932 275.493ZM139.174 297.151L117.71 273.817L116.238 275.171L137.702 298.505L139.174 297.151ZM138.374 275.387L137.439 297.787L139.437 297.87L140.372 275.471L138.374 275.387Z" fill="white" mask="url(#path-15-inside-5_138_149)"/>
<mask id="path-17-inside-6_138_149" fill="white">
<path fill-rule="evenodd" clip-rule="evenodd" d="M291.047 135.911L313.446 136.846L291.982 113.512L291.047 135.911ZM307.368 282.442L306.433 304.841L284.969 281.507L291.047 135.911L313.446 136.846L307.368 282.442Z"/>
</mask>
<path fill-rule="evenodd" clip-rule="evenodd" d="M291.047 135.911L313.446 136.846L291.982 113.512L291.047 135.911ZM307.368 282.442L306.433 304.841L284.969 281.507L291.047 135.911L313.446 136.846L307.368 282.442Z" fill="black"/>
<path d="M313.446 136.846L313.405 137.845L315.817 137.946L314.182 136.169L313.446 136.846ZM291.047 135.911L290.048 135.869L290.006 136.868L291.005 136.91L291.047 135.911ZM291.982 113.512L292.718 112.835L291.084 111.058L290.983 113.47L291.982 113.512ZM306.433 304.841L305.697 305.518L307.332 307.295L307.432 304.883L306.433 304.841ZM307.368 282.442L308.368 282.484L307.368 282.442ZM284.969 281.507L283.97 281.465L283.953 281.879L284.233 282.184L284.969 281.507ZM291.047 135.911L291.089 134.912L290.089 134.87L290.048 135.869L291.047 135.911ZM313.446 136.846L314.445 136.888L314.487 135.889L313.488 135.847L313.446 136.846ZM313.488 135.847L291.089 134.912L291.005 136.91L313.405 137.845L313.488 135.847ZM291.246 114.189L312.71 137.523L314.182 136.169L292.718 112.835L291.246 114.189ZM292.046 135.953L292.981 113.553L290.983 113.47L290.048 135.869L292.046 135.953ZM307.432 304.883L308.368 282.484L306.369 282.4L305.434 304.8L307.432 304.883ZM284.233 282.184L305.697 305.518L307.169 304.164L285.705 280.83L284.233 282.184ZM290.048 135.869L283.97 281.465L285.968 281.549L292.046 135.953L290.048 135.869ZM313.488 135.847L291.089 134.912L291.005 136.91L313.405 137.845L313.488 135.847ZM308.368 282.484L314.445 136.888L312.447 136.804L306.369 282.4L308.368 282.484Z" fill="white" mask="url(#path-17-inside-6_138_149)"/>
<defs>
<linearGradient id="paint0_linear_138_149" x1="896.068" y1="12.6697" x2="458.941" y2="474.303" gradientUnits="userSpaceOnUse">
<stop/>
<stop offset="1"/>
</linearGradient>
<linearGradient id="paint1_linear_138_149" x1="367.285" y1="359.81" x2="666.626" y2="50.0553" gradientUnits="userSpaceOnUse">
<stop/>
<stop offset="1"/>
</linearGradient>
<linearGradient id="paint2_linear_138_149" x1="460.822" y1="118.456" x2="292.773" y2="288.613" gradientUnits="userSpaceOnUse">
<stop/>
<stop offset="1"/>
</linearGradient>
</defs>
</svg>
